#!OML:ASF X:\für Bonn\!DataBase\2005_08_12_Daniel\c3d\Daniel.ASF
:FULLY-SPECIFIED
:DEGREES
185
root 2.66493 16.6808 -11.7401 -548.778 -14.6458 -523.947
lowerback 12.2932 0.654496 5.3268
upperback 2.45516 1.31941 0.0327617
thorax -4.18095 0.490621 -3.16928
lowerneck -3.7446 7.61123 -3.20905
upperneck -1.61576 10.0476 -7.14242
head 0.33961 4.90003 -1.52388
rclavicle -2.64384e-014 1.59028e-014
rhumerus -57.6394 14.9648 -105.141
rradius 87.3194
rwrist 3.10936
rhand -27.4885 33.782
rfingers 7.12502
rthumb -0.891886 3.80414
lclavicle -2.64384e-014 1.59028e-014
lhumerus -67.2264 -0.655063 92.933
lradius 112.197
lwrist 18.5757
lhand -8.48971 -14.6027
lfingers 7.12502
lthumb 17.4376 14.6351
rfemur 7.03488 -6.47492 19.3842
rtibia 68.7194
rfoot 1.94528 -3.70331
rtoes -14.9059
lfemur -22.9675 5.21691 -27.2555
ltibia 50.686
lfoot -22.967 5.78557
ltoes 15.4351
186
root 2.63716 16.5544 -12.001 -549.164 -15.1355 -524.28
lowerback 12.8125 0.572044 4.83614
upperback 2.65653 1.14236 -0.0804238
thorax -4.27918 0.399915 -2.99136
lowerneck -3.87084 7.76639 -3.05552
upperneck -1.76859 10.2429 -7.333
head 0.336553 4.99691 -1.6021
rclavicle -4.6118e-014 -2.38542e-014
rhumerus -56.8048 13.7034 -104.251
rradius 85.3331
rwrist 3.03914
rhand -27.634 34.0971
rfingers 7.12502
rthumb -1.03246 4.11982
lclavicle -4.6118e-014 -2.38542e-014
lhumerus -65.4652 -0.0827009 92.8435
lradius 111.997
lwrist 18.4496
lhand -8.81946 -14.9633
lfingers 7.12502
lthumb 17.1202 14.3024
rfemur 5.45056 -6.46441 18.4882
rtibia 71.6601
rfoot 1.22533 -3.90164
rtoes -14.3251
lfemur -22.2483 4.48994 -27.8137
ltibia 52.1346
lfoot -25.0898 6.68036
ltoes 15.6726
187
root 2.60808 16.4461 -12.2612 -549.43 -15.6763 -524.793
lowerback 13.302 0.502339 3.99487
upperback 2.84458 0.929239 -0.182343
thorax -4.38238 0.295256 -2.59467
lowerneck -4.09957 7.97202 -2.72155
upperneck -1.8247 10.5112 -7.65865
head 0.40151 5.12175 -1.74276
rclavicle 5.48646e-014 -2.38542e-014
rhumerus -55.9899 12.4097 -103.286
rradius 83.2628
rwrist 3.09723
rhand -27.926 34.4341
rfingers 7.12502
rthumb -1.31443 4.45839
lclavicle 5.48646e-014 -2.38542e-014
lhumerus -63.4129 0.666437 92.8316
lradius 111.652
lwrist 18.2669
lhand -9.0106 -14.874
lfingers 7.12502
lthumb 16.9362 14.4075
rfemur 3.69391 -6.36594 17.5212
rtibia 74.4382
rfoot 0.47202 -4.00176
rtoes -14.0494
lfemur -21.4254 3.87301 -28.5243
ltibia 53.3383
lfoot -27.026 7.33592
ltoes 15.7211
188
root 2.57743 16.3497 -12.5194 -549.568 -16.2366 -525.336
lowerback 13.7076 0.441431 3.07193
upperback 2.99082 0.708493 -0.313265
thorax -4.47911 0.188749 -2.17733
lowerneck -4.38653 8.19632 -2.20058
upperneck -1.81619 10.808 -8.02679
head 0.513406 5.25677 -1.92189
rclavicle 1.55052e-014 -4.77083e-015
rhumerus -55.2319 10.9765 -102.316
rradius 81.1625
rwrist 3.16689
rhand -28.3514 34.7091
rfingers 7.12502
rthumb -1.72532 4.73635
lclavicle 1.55052e-014 -4.77083e-015
lhumerus -61.2435 1.46433 92.8064
lradius 111.289
lwrist 18.0429
lhand -9.08504 -14.4557
lfingers 7.12502
lthumb 16.8646 14.832
rfemur 1.67897 -6.18495 16.659
rtibia 77.0586
rfoot -0.145587 -4.16918
rtoes -13.0019
lfemur -20.5982 3.48127 -29.2063
ltibia 54.2873
lfoot -28.7924 7.65902
ltoes 15.5072
189
root 2.52526 16.2665 -12.776 -549.65 -16.8208 -525.807
lowerback 13.983 0.32947 2.3879
upperback 3.13078 0.446566 -0.43321
thorax -4.50415 0.0609871 -1.87274
lowerneck -4.71762 8.43851 -1.75472
upperneck -1.7319 11.1356 -8.39588
head 0.657077 5.40199 -2.08469
rclavicle -4.19436e-014 2.22639e-014
rhumerus -54.5694 9.58761 -101.269
rradius 79.0714
rwrist 3.28915
rhand -28.9849 34.8754
rfingers 7.12502
rthumb -2.33716 4.90842
lclavicle -4.19436e-014 2.22639e-014
lhumerus -59.0633 2.43339 92.8882
lradius 111.006
lwrist 17.7815
lhand -9.15063 -13.7576
lfingers 7.12502
lthumb 16.8014 15.5354
rfemur -0.467863 -6.0015 15.8579
rtibia 79.4319
rfoot -0.633495 -4.23642
rtoes -11.4216
lfemur -19.6707 3.20681 -29.8415
ltibia 54.963
lfoot -30.3688 7.83248
ltoes 14.9794
190
root 2.46379 16.2138 -13.0344 -549.726 -17.4196 -526.044
lowerback 14.1701 0.166681 1.94773
upperback 3.25694 0.152828 -0.514153
thorax -4.49011 -0.0838522 -1.65746
lowerneck -5.06034 8.69492 -1.31475
upperneck -1.62941 11.4831 -8.7559
head 0.812506 5.55567 -2.24172
rclavicle 1.31198e-014 -7.95139e-015
rhumerus -53.9791 8.20737 -100.242
rradius 76.9817
rwrist 3.33947
rhand -29.739 34.9602
rfingers 7.12502
rthumb -3.06544 5.00252
lclavicle 1.31198e-014 -7.95139e-015
lhumerus -57.0213 3.53962 93.0071
lradius 110.894
lwrist 17.4568
lhand -9.19193 -13.0345
lfingers 7.12502
lthumb 16.7617 16.262
rfemur -2.69169 -5.86539 15.4552
rtibia 81.4721
rfoot -1.02013 -4.27252
rtoes -10.226
lfemur -18.6474 3.10571 -30.1444
ltibia 55.3689
lfoot -31.6632 7.7426
ltoes 14.5773
191
root 2.39657 16.1835 -13.2927 -549.793 -18.0434 -526.083
lowerback 14.2864 -0.0371284 1.72178
upperback 3.34463 -0.157433 -0.542357
thorax -4.47451 -0.237048 -1.50404
lowerneck -5.31103 8.94966 -0.965668
upperneck -1.55617 11.8241 -9.08173
head 0.938494 5.70948 -2.37756
rclavicle -4.65156e-014 1.74931e-014
rhumerus -53.5284 6.8622 -99.1961
rradius 75.0298
rwrist 3.39326
rhand -30.5391 34.8288
rfingers 7.12502
rthumb -3.83805 4.88357
lclavicle -4.65156e-014 1.74931e-014
lhumerus -55.2301 4.64329 93.207
lradius 111.042
lwrist 17.198
lhand -9.3372 -12.3208
lfingers 7.12502
lthumb 16.6218 16.9875
rfemur -4.96385 -5.81528 15.3633
rtibia 83.1834
rfoot -1.39612 -4.19684
rtoes -9.5349
lfemur -17.5674 2.99293 -30.1875
ltibia 55.5508
lfoot -32.6861 7.5331
ltoes 14.3818
192
root 2.32627 16.1667 -13.5486 -549.832 -18.6972 -526.019
lowerback 14.3144 -0.271997 1.62972
upperback 3.41139 -0.48536 -0.555774
thorax -4.43181 -0.398342 -1.40747
lowerneck -5.51134 9.20003 -0.699702
upperneck -1.47455 12.1612 -9.36722
head 1.05297 5.86267 -2.48846
rclavicle -3.97569e-015 -3.81667e-014
rhumerus -53.3089 5.61097 -98.1709
rradius 73.2981
rwrist 3.25341
rhand -31.2665 34.5505
rfingers 7.12502
rthumb -4.54049 4.61913
lclavicle -3.97569e-015 -3.81667e-014
lhumerus -53.5968 5.67616 93.4934
lradius 111.316
lwrist 17.0508
lhand -9.62286 -11.8546
lfingers 7.12502
lthumb 16.3468 17.4765
rfemur -7.29996 -5.70103 15.5448
rtibia 84.6008
rfoot -1.84044 -4.11728
rtoes -8.64339
lfemur -16.451 2.87399 -30.0734
ltibia 55.5587
lfoot -33.4668 7.17062
ltoes 14.6287
193
root 2.25405 16.1599 -13.8035 -549.874 -19.3577 -525.887
lowerback 14.286 -0.524525 1.62172
upperback 3.47359 -0.821909 -0.545019
thorax -4.36294 -0.563703 -1.33209
lowerneck -5.71454 9.45159 -0.513762
upperneck -1.38319 12.5039 -9.61036
head 1.16497 6.01843 -2.57113
rclavicle 4.96962e-014 1.27222e-014
rhumerus -53.4416 4.54396 -97.1886
rradius 71.7971
rwrist 2.96836
rhand -31.8885 34.3632
rfingers 7.12502
rthumb -5.14109 4.44557
lclavicle 4.96962e-014 1.27222e-014
lhumerus -52.0815 6.73554 93.8695
lradius 111.539
lwrist 16.9136
lhand -10.0362 -11.738
lfingers 7.12502
lthumb 15.9488 17.6253
rfemur -9.63809 -5.45585 15.9666
rtibia 85.688
rfoot -2.32165 -4.13071
rtoes -8.20819
lfemur -15.2499 2.70247 -29.8422
ltibia 55.449
lfoot -34.1157 6.61189
ltoes 15.0954
194
root 2.18108 16.1603 -14.0566 -549.917 -20.0524 -525.653
lowerback 14.1777 -0.813292 1.72791
upperback 3.51744 -1.18616 -0.516931
thorax -4.27209 -0.741999 -1.29976
lowerneck -5.82371 9.70666 -0.223079
upperneck -1.31291 12.8421 -9.92769
head 1.26977 6.17371 -2.6995
rclavicle -7.55382e-015 -4.45278e-014
rhumerus -53.9236 3.71248 -96.3279
rradius 70.5685
rwrist 2.55588
rhand -32.4345 34.2025
rfingers 7.12502
rthumb -5.66825 4.29828
lclavicle -7.55382e-015 -4.45278e-014
lhumerus -50.791 7.79789 94.3538
lradius 111.677
lwrist 16.8487
lhand -10.5056 -12.18
lfingers 7.12502
lthumb 15.4968 17.2189
rfemur -11.9862 -5.15098 16.6278
rtibia 86.4292
rfoot -2.84344 -4.23116
rtoes -8.79648
lfemur -14.0585 2.48217 -29.4804
ltibia 55.2649
lfoot -34.5485 5.99823
ltoes 15.551
195
root 2.10302 16.1803 -14.3102 -549.94 -20.7884 -525.37
lowerback 14.0324 -1.12264 1.8662
upperback 3.51657 -1.56741 -0.469221
thorax -4.20974 -0.927165 -1.26345
lowerneck -5.91682 9.97377 0.154303
upperneck -1.14717 13.2026 -10.2754
head 1.41627 6.33657 -2.84904
rclavicle 3.93594e-014 -3.49861e-014
rhumerus -54.5546 3.06483 -95.56
rradius 69.5234
rwrist 2.03399
rhand -32.7285 34.043
rfingers 7.12502
rthumb -5.95209 4.14662
lclavicle 3.93594e-014 -3.49861e-014
lhumerus -49.7395 8.75255 94.9409
lradius 111.896
lwrist 16.8112
lhand -10.9733 -12.8459
lfingers 7.12502
lthumb 15.0462 16.5874
rfemur -14.2461 -4.80309 17.3955
rtibia 86.7317
rfoot -3.37099 -4.32816
rtoes -9.38732
lfemur -12.8686 2.41258 -29.0033
ltibia 54.9472
lfoot -34.7503 5.25012
ltoes 15.9133
196
root 2.02384 16.212 -14.5632 -549.997 -21.5482 -525.008
lowerback 13.838 -1.44552 2.08912
upperback 3.51584 -1.95479 -0.405321
thorax -4.12359 -1.11551 -1.25944
lowerneck -5.91542 10.2245 0.48881
upperneck -1.0324 13.5361 -10.6035
head 1.52693 6.49108 -2.99214
rclavicle -2.38542e-015 1.90833e-014
rhumerus -55.1998 2.60688 -94.8739
rradius 68.5825
rwrist 1.51226
rhand -32.8314 33.8506
rfingers 7.12502
rthumb -6.05148 3.95704
lclavicle -2.38542e-015 1.90833e-014
lhumerus -48.8525 9.44671 95.6423
lradius 112.283
lwrist 16.8765
lhand -11.4587 -13.534
lfingers 7.12502
lthumb 14.5786 15.9337
rfemur -16.3876 -4.4136 18.2837
rtibia 86.63
rfoot -3.85893 -4.47224
rtoes -9.45461
lfemur -11.6312 2.37874 -28.3942
ltibia 54.4806
lfoot -34.6738 4.42707
ltoes 16.0924
